<?xml version="1.0" encoding="UTF-8"?>
<svg width="516.66pt" height="516.66pt" version="1.1" viewBox="0 0 516.66 516.66" xmlns="http://www.w3.org/2000/svg">
<path d="m31.667 126.28v259.84c-0.0273 0.27734-0.0273 0.55859 0 0.83984v0.95312l0.33594 0.78516v-4e-3c0.0937 0.3125 0.22656 0.61328 0.39062 0.89844 0.11719 0.22656 0.26562 0.43359 0.44922 0.61328 0.19141 0.30469 0.41797 0.58594 0.67188 0.83984l0.61719 0.44922h-4e-3c0.25 0.23828 0.51172 0.46484 0.78516 0.67188l220.02 124.43h1.3438c0.53906 0.0859 1.0859 0.0859 1.625 0 0.53906 0.0859 1.0859 0.0859 1.625 0h1.3438l220.75-124.38 0.61719-0.50391 0.83984-0.61719 0.50391-0.72656c0.21875-0.21484 0.40625-0.46094 0.55859-0.72656 0 0 0-0.55859 0.39062-0.83984s0-0.50391 0.33594-0.83984c0.33595-0.33594 0-0.61719 0-0.95312h4e-3c0.0273-0.27734 0.0273-0.55859 0-0.83984v-260.28c0.0273-0.33594 0.0273-0.67188 0-1.0078v-1.0078c8e-3 -0.18359 8e-3 -0.37109 0-0.55859-0.0156-0.14844-0.0156-0.30078 0-0.44922l-0.39062-0.44922-4e-3 4e-3c-0.10937-0.23828-0.23828-0.46094-0.39062-0.67578 0 0-0.44922-0.33594-0.67188-0.55859l-0.78516-0.67188-0.44922-0.33594-220.47-119.84h-0.72657l-0.83983-0.33594h-3.5234l-0.83984 0.33594h-0.72657l-219.75 119.79-0.44922 0.33594-0.78516 0.67187s-0.50391 0.33594-0.67188 0.55859h4e-3c-0.15234 0.21094-0.28125 0.4375-0.39063 0.67188l-0.39062 0.44922h-4e-3c0.0156 0.14844 0.0156 0.29688 0 0.44922-0.10156 0.17969-0.19531 0.36719-0.27734 0.55859v1.0078c-0.0273 0.33594-0.0273 0.67188 0 1.0078v0.39062zm219.69-108.02v48.551l-162.01 39.762zm176.06 88.309-162.06-39.762v-48.547zm36.68 279.5-169.34 95.816 117.6-125.72 14.895 8.7344zm-418.49-212.63 51.742 170.63-51.742 29.957zm226.69-90.555 197.01 48.383-60.141 198.24zm-154.67 257.6 140.79-253.79 140.73 253.62zm277.31 14-136.53 145.77-136.59-145.94zm-150.47-271.6-136.86 246.4-60.086-198.01 173.1-42.504zm-140 273.28 117.6 125.72-169.34-95.816zm314.95-12.098 51.801-170.69v200.65z"/>
<path transform="scale(.75)" d="m130.85 136.59c1.8532-1.1437 46.835-25.71 99.96-54.593s98.241-53.508 100.26-54.723l3.6679-2.2096-0.29846 31.815-0.29845 31.815-101.64 24.981c-55.905 13.739-102.4 24.984-103.33 24.988-0.92659 3e-3 -0.16847-0.92874 1.6847-2.0724z" fill="#fff" stroke-width="1.1231"/>
<path transform="scale(.75)" d="m455.72 113.59-100.8-24.858v-31.168c0-17.143 0.28518-31.168 0.63373-31.168 0.46556 0 194.07 105.16 204.9 111.29 4.5904 2.6004-11.267-1.048-104.73-24.097z" fill="#fff" stroke-width="1.1231"/>
<path transform="scale(.75)" d="m104.03 306.88c-21.544-71.185-39.234-129.88-39.31-130.42-0.1254-0.90187 257.26-64.907 258.86-64.372 0.75097 0.251-178.92 324.21-179.82 324.22-0.30887 4e-3 -18.189-58.236-39.733-129.42z" fill="#fff" stroke-width="1.1231"/>
<path transform="scale(.75)" d="m163.62 443.26c38.631-70.805 180.82-325.57 181.38-324.98 0.41252 0.42787 41.525 74.316 91.361 164.2 49.836 89.88 91.557 165.06 92.714 167.07l2.103 3.6502h-372.97z" fill="#fff" stroke-width="1.1231"/>
<path transform="scale(.75)" d="m455.1 274.94c-49.567-89.319-89.945-162.58-89.729-162.79 0.58388-0.58388 257.26 62.599 258.33 63.589 0.6716 0.62362-77.014 260.06-78.268 261.38-0.11444 0.12074-40.763-72.86-90.329-162.18z" fill="#fff" stroke-width="1.1231"/>
<path transform="scale(.75)" d="m593.62 477.93c-17.895-10.407-32.687-19.373-32.871-19.925-0.25348-0.76044 64.354-215.56 66.478-221.02 0.24036-0.61772 0.47692 57.631 0.52569 129.44 0.0488 71.811-0.29039 130.53-0.75369 130.5-0.4633-0.0377-15.484-8.5835-33.379-18.991z" fill="#fff" stroke-width="1.1231"/>
<path transform="scale(.75)" d="m399.84 636.9c0-1.3104 149.77-160.68 150.73-160.39 2.1066 0.63369 66.038 37.849 65.991 38.414-0.0434 0.52014-213.08 121.27-215.73 122.28-0.54179 0.20592-0.98508 0.0722-0.98508-0.29708z" fill="#fff" stroke-width="1.1231"/>
<path transform="scale(.75)" d="m254.49 569.74-89.624-95.77 89.972-0.28747c49.484-0.15811 130.38-0.15811 179.76 0l89.787 0.28747-89.38 95.467c-49.159 52.507-89.72 95.604-90.135 95.77s-41.085-42.794-90.379-95.467z" fill="#fff" stroke-width="1.1231"/>
<path transform="scale(.75)" d="m203.85 589.57c-46.33-26.25-95.008-53.823-108.17-61.273l-23.939-13.547 30.116-17.401c16.564-9.5707 31.705-18.377 33.647-19.569l3.5311-2.1677 70.631 75.549c83.502 89.317 80.658 86.231 79.409 86.177-0.54198-0.023-38.892-21.519-85.221-47.769z" fill="#fff" stroke-width="1.1231"/>
<path transform="scale(.75)" d="m61.773 367.71c0-71.178 0.18941-129.2 0.42091-128.95 0.2315 0.25738 15.181 49.176 33.22 108.71 18.04 59.531 33.026 108.83 33.303 109.55 0.36611 0.95405-51.092 31.832-66.102 39.665-0.4633 0.24177-0.84236-57.797-0.84236-128.98z" fill="#fff" stroke-width="1.1231"/>
</svg>
